<svg
  xmlns="http://www.w3.org/2000/svg"
  width="89.065"
  height="93.468"
  viewBox="0 0 89.065 93.468"
>
  <path
    id="Path_1"
    data-name="Path 1"
    d="M777.248-31.939q0,3.053-5.812,7.163a37.867,37.867,0,0,1-8.748,4.7q-3.112,1.057-37.751,8.865Q698.869-5.343,691,1.174a5.322,5.322,0,0,1-2.818-1.526v-3.64a48.261,48.261,0,0,1,13.093-7.339q7.4-2.583,21.195-5.871l21.371-5.108q4.873-1.115,10.274-2.818a50.487,50.487,0,0,0,9.746-3.992,22.5,22.5,0,0,0,3.464-3.288,13.445,13.445,0,0,0-6.106-5.4,51.352,51.352,0,0,0-7.926-2.936q-3.816-1.116-14.678-4.345-50.433-15.441-50.433-29.121,0-3.992,2.583-5.754.294-.235,6.576-2.114,34.933-10.216,52.37-10.216h2q10.8,0,14.971,4.814A3.466,3.466,0,0,0,765.8-85.6q-10.04-1.409-11.566-1.409-6.517,0-22.193,2.994-14.325,2.818-27.594,6.282a25.64,25.64,0,0,0-8.748,3.992q3.64,6.106,13.093,10.627,1.409.646,16.087,6.928L736.972-52.9q40.276,11.155,40.276,20.96Z"
    transform="translate(-688.183 92.294)"
    fill="#3c6bb9"
  />
</svg>
