<svg xmlns="http://www.w3.org/2000/svg" viewBox="0 0 336.59 110.377">
  <path
    data-name="Path 1"
    d="M89.065 77.263q0 3.053-5.812 7.163a37.867 37.867 0 0 1-8.748 4.7q-3.112 1.057-37.751 8.865-26.068 5.868-33.937 12.385a5.322 5.322 0 0 1-2.818-1.526v-3.64a48.261 48.261 0 0 1 13.093-7.339q7.4-2.583 21.195-5.871l21.371-5.108q4.873-1.115 10.274-2.818a50.487 50.487 0 0 0 9.746-3.992 22.5 22.5 0 0 0 3.464-3.288 13.445 13.445 0 0 0-6.106-5.4 51.352 51.352 0 0 0-7.926-2.936q-3.816-1.116-14.678-4.345Q-.001 48.672-.001 34.992q0-3.992 2.583-5.754.294-.235 6.576-2.114 34.933-10.216 52.37-10.216h2q10.8 0 14.971 4.814a3.466 3.466 0 0 0-.882 1.88q-10.04-1.409-11.566-1.409-6.517 0-22.193 2.994-14.325 2.818-27.594 6.282a25.64 25.64 0 0 0-8.748 3.992q3.64 6.106 13.093 10.627 1.409.646 16.087 6.928l12.093 3.286q40.276 11.155 40.276 20.96Z"
    fill="#3c6bb9"
  />
  <path
    data-name="Path 2"
    d="m113.253 8.802-3.346 74.215q-.294.235-.294 1.409a24.274 24.274 0 0 0 .294 3.229q.646 5.519 3.053 20.9-.117.528-2 1.174a3.954 3.954 0 0 1-.646.059q-6.165 0-7.985-14.208a7.378 7.378 0 0 1-.059-1.174q0-2.759.294-11.331.411-11.038 1-23.073.176-4.579 1.35-17.026 1.116-11.39 1.116-16.909 0-16.85 2.231-23.543l.881-.059h.294a2.724 2.724 0 0 1 2.7 2.231 35.519 35.519 0 0 1 1.115 4.11Z"
    fill="#4f7abf"
  />
  <path
    data-name="Path 3"
    d="m141.728 52.252.059.235q0 2.29-4.814 5.578-1.409-.411-5.754-4.814 1.761-4.227 3.816-4.227 1.937 0 6.693 3.229Zm-5.519 44.855q-.7 9.511-.7 11.038a10.547 10.547 0 0 1-5.054 1.585 20.572 20.572 0 0 1-.939-6.693q0-22.193 5.519-23.543a3.393 3.393 0 0 1 2.114 2.994q-.059-.763-.176-.822.059.646.059 1.585 0 4.168-.822 13.856Z"
    fill="#6289c6"
  />
  <path
    data-name="Path 4"
    d="M218.582 74.328q-7.632 3.347-24.306 8.689-15.676 5.049-19.022 6.223-14.091 5.225-16.674 8.572a2.576 2.576 0 0 0 1.35 2.348q2.994 1.7 12.623 1.7 3.347 0 15.441-2.583 16.2-3.405 29.708-7.1-.7 3.7-3.053 4.932-2.466 1.35-18.142 5.989-16.2 4.814-18.67 4.814-.822 0-5.519.411-4.638.352-5.46.352a30.627 30.627 0 0 1-10.8-2.29q-7.221-2.759-7.221-6.81 0-5.167 3.229-7.221.528-.294 7.28-3.405 14.149-6.4 23.719-8.4a47.188 47.188 0 0 0 8.337-2.936 73.538 73.538 0 0 1 8.22-3.347l6.693-1.292a11.346 11.346 0 0 0 5.871-3.288q-1.644-20.842-1.644-51.372 0-17.379 2.7-18.318a8.022 8.022 0 0 1 2.877 1.82q1.115 1.468 1.35 5.4V7.04q-.059 0-.059 13.5l.059 39.513a95.7 95.7 0 0 0 1.115 14.267Z"
    fill="#7697cc"
  />
  <path
    data-name="Path 5"
    d="M277.879 78.79 276 80.49a34.569 34.569 0 0 0-9.57-1.937h-.47q-4.4.235-6.458.235h-4.7q-.117 0-4.11 1.292a54.137 54.137 0 0 0-7.456 1.292 15.42 15.42 0 0 0-9.394 12.212 33.81 33.81 0 0 0-.646 6.106q0 .7.059 1.409.47 6.517.47 7.691a35.6 35.6 0 0 1-4.345.7 12.1 12.1 0 0 1-1.644-4.4q0-.646.294-3.347.176-2.7.176-3.64 0-4.932 4.345-16.967a12.745 12.745 0 0 1 4.227-4.99q5.989-4.11 22.134-4.11 16.2.059 18.964 4.286Z"
    fill="#89a6d3"
  />
  <path
    data-name="Path 6"
    d="m336.591 78.79-1.879 1.7a34.569 34.569 0 0 0-9.57-1.937h-.47q-4.4.235-6.458.235h-4.7q-.117 0-4.11 1.292a54.137 54.137 0 0 0-7.456 1.292 15.42 15.42 0 0 0-9.394 12.212 33.81 33.81 0 0 0-.646 6.106q0 .7.059 1.409.47 6.517.47 7.691a35.593 35.593 0 0 1-4.345.7 12.1 12.1 0 0 1-1.644-4.4q0-.646.294-3.347.176-2.7.176-3.64 0-4.932 4.345-16.967a12.745 12.745 0 0 1 4.227-4.99q5.989-4.11 22.134-4.11 16.2.059 18.964 4.286Z"
    fill="#9cb5d9"
  />
</svg>
